<svg width="56" height="56" viewBox="0 0 56 56" fill="none" xmlns="http://www.w3.org/2000/svg">
<path d="M53.6665 28.5718C53.6665 26.4601 53.4915 24.9201 53.1158 23.3218H28.5225V32.8488H42.9565C42.6671 35.2148 41.0968 38.7801 37.6038 41.1764L37.5548 41.4938L45.3295 47.3971L45.8661 47.4484C50.8175 42.9731 53.6665 36.3838 53.6665 28.5718Z" fill="#4285F4"/>
<path d="M28.5251 53.6666C35.5951 53.6666 41.5311 51.3846 45.8688 47.4483L37.6041 41.1763C35.3921 42.6883 32.4241 43.7429 28.5251 43.7429C25.2385 43.7433 22.0343 42.7146 19.3619 40.8014C16.6896 38.8882 14.6833 36.1863 13.6245 33.075L13.3165 33.1006L5.23147 39.2326L5.12646 39.5219C9.4338 47.9056 18.2818 53.6666 28.5251 53.6666Z" fill="#34A853"/>
<path d="M13.6268 33.0751C13.0529 31.4442 12.7556 29.7289 12.7472 28.0001C12.7472 26.2314 13.0692 24.5211 13.5895 22.9251L13.5755 22.5821L5.39016 16.3521L5.12183 16.4781C3.29201 20.0433 2.33628 23.9926 2.3335 28.0001C2.3335 32.1347 3.35083 36.0431 5.1265 39.5221L13.6268 33.0751Z" fill="#FBBC05"/>
<path d="M28.5251 12.2569C33.4438 12.2569 36.7595 14.3383 38.6518 16.0789L46.0415 9.00658C41.5031 4.87192 35.5951 2.33325 28.5251 2.33325C18.2795 2.33325 9.4338 8.09425 5.12646 16.4779L13.5965 22.9249C14.6644 19.8138 16.6769 17.1136 19.3531 15.2012C22.0293 13.2888 25.2358 12.2595 28.5251 12.2569Z" fill="#EB4335"/>
</svg>
