<svg width="38" height="56" viewBox="0 0 38 56" fill="none" xmlns="http://www.w3.org/2000/svg">
<path d="M2.00917 2.00114L36 2L35.9992 10.4422L11.6927 10.4453C11.6283 15.3091 11.69 20.3096 11.6913 25.1875C14.084 25.2135 16.5224 25.1897 18.9206 25.1898L33.0572 25.19L33.0552 29.8414L33.0576 33.4873C30.6697 33.5238 28.1899 33.4901 25.7958 33.4901L11.6931 33.4893C11.6639 35.794 11.6902 38.1641 11.6901 40.4741L11.6899 53.9842C8.48958 54.0183 5.21961 53.9866 2.01207 53.9866C1.98645 52.026 2.00958 50.0129 2.00958 48.049L2.0097 36.5077L2.00917 2.00114Z" fill="black"/>
</svg>
